# Blender 5.0.1
# www.blender.org
mtllib chama.mtl
o Icosphere
v -0.180250 -0.584951 -0.069904
v 0.624807 2.039738 0.777204
v -0.180100 -0.337578 0.521350
v -0.519032 -0.492452 0.020479
v -0.706989 2.190535 -0.696036
v 0.042047 -0.606559 -0.391898
v 0.276388 0.447220 0.850649
v -0.494490 0.341680 0.354480
v -0.630919 0.893531 -0.472630
v 0.142392 0.411761 -0.722998
v 0.828784 0.432440 0.031816
v -0.245055 3.646723 0.413821
v -0.136095 -0.505001 0.365902
v 0.677832 -0.283690 0.487260
v 0.615990 -0.240742 0.700242
v 0.647166 -0.378711 0.006318
v -0.018091 -0.607832 -0.251975
v -0.364830 -0.568313 -0.004827
v -0.217283 -0.568332 0.227366
v -0.588974 -0.279237 -0.684608
v -0.648006 -0.164049 -0.473529
v -0.475369 -0.292667 -0.833047
v 0.687929 -0.289288 0.477455
v 0.647740 -0.040751 -0.119737
v 0.119696 -0.064458 0.760716
v 0.364946 0.065891 0.866921
v -0.676545 0.102191 0.148402
v -0.383331 -0.190235 0.428587
v -0.773089 0.815119 -0.416570
v -0.786786 -0.012640 -0.290569
v 0.337958 0.013959 -0.505098
v 0.005629 0.017764 -0.898458
v 0.185191 2.824818 0.523202
v -0.158803 0.313814 0.605788
v -0.716231 0.465793 -0.035969
v -0.410214 2.686897 -0.324789
v 0.483589 0.462571 -0.335019
v 0.099010 0.865299 0.564559
v 0.563556 0.859806 -0.037006
v -0.342268 0.857179 0.233711
v -0.490790 0.932479 -0.306945
v 0.192510 0.856824 -0.524850
vn 0.2382 -0.9593 0.1518
vn 0.9971 0.0315 -0.0698
vn -0.0242 -0.9829 0.1828
vn -0.1987 -0.9238 -0.3273
vn -0.3635 -0.9077 -0.2097
vn -0.9949 -0.0390 0.0935
vn -0.1096 -0.5844 0.8040
vn -0.5893 -0.3160 0.7436
vn -0.8275 -0.0733 -0.5566
vn 0.4637 -0.3682 -0.8059
vn -0.7374 0.0665 -0.6722
vn -0.5114 -0.1758 0.8412
vn -0.9019 -0.3048 0.3062
vn 0.6138 0.1288 0.7789
vn 0.6726 -0.4306 -0.6018
vn -0.8160 0.0480 0.5761
vn -0.5452 0.3405 0.7660
vn -0.6820 0.5846 0.4394
vn 0.5817 0.2753 -0.7654
vn 0.7002 0.3329 -0.6316
vn 0.7552 0.3123 -0.5763
vn 0.7626 0.2829 -0.5817
vn 0.7197 0.2132 -0.6608
vn -0.2653 0.2698 -0.9256
vn 0.3034 -0.0042 0.9529
vn -0.7677 0.0418 0.6395
vn -0.9636 0.0163 0.2670
vn -0.7839 0.5481 0.2917
vn -0.7613 0.3523 0.5443
vn -0.5992 -0.0308 0.8000
vn -0.5714 0.3235 0.7542
vn -0.5366 0.3095 0.7850
vn 0.7853 0.1299 0.6053
vn -0.7912 0.0219 -0.6112
vn 0.6839 0.3188 -0.6562
vn 0.7247 -0.0573 -0.6867
vn 0.7783 -0.0147 -0.6277
vn 0.7505 0.0069 -0.6609
vn 0.4031 0.2519 -0.8798
vn -0.4252 0.1264 -0.8962
vn 0.4233 -0.1261 0.8972
vn -0.9861 0.1630 -0.0330
vn -0.9707 0.0156 0.2397
vn -0.8306 0.1771 0.5280
vn -0.6000 -0.0139 0.7999
vn -0.5407 -0.0543 0.8395
vn -0.4896 -0.0033 0.8719
vn 0.4359 0.1392 0.8892
vn 0.8163 0.1235 0.5643
vn 0.8633 0.1322 0.4870
vn 0.7638 0.0221 -0.6451
vn 0.4594 -0.7952 -0.3958
vn -0.1597 0.0395 -0.9864
vn 0.2960 0.1390 0.9450
vn -0.8225 -0.0723 -0.5641
vn -0.8154 -0.5571 -0.1575
vn -0.7170 -0.0530 0.6950
vn -0.8024 -0.5139 0.3034
vn -0.6440 -0.5601 0.5211
vn -0.3755 -0.0477 0.9256
vn -0.0848 -0.5286 0.8446
vn 0.5266 -0.0307 0.8496
vn 0.9360 -0.2982 -0.1871
vn 0.9963 -0.0316 -0.0802
vn 0.5991 -0.2807 -0.7498
vn -0.3950 -0.9013 -0.1780
vn -0.3698 -0.9071 -0.2010
vn -0.7952 -0.0408 -0.6049
vn -0.9684 -0.0474 -0.2450
vn -0.8458 -0.5308 0.0531
vn -0.4561 -0.7914 -0.4070
vn -0.3940 -0.8844 0.2503
vn 0.8405 0.0908 -0.5341
vn -0.4729 -0.6631 0.5803
vn 0.2839 -0.9521 0.1134
vn 0.2608 -0.9501 0.1711
vn 0.1623 -0.9507 0.2641
vn -0.0780 -0.6893 0.7203
vn 0.2184 -0.9424 0.2535
vn 0.9595 -0.0132 0.2813
vt 0.181819 0.000000
vt 0.227273 0.078731
vt 0.136365 0.078731
vt 0.272728 0.157461
vt 0.318182 0.078731
vt 0.363637 0.157461
vt 0.909091 0.000000
vt 0.954545 0.078731
vt 0.863636 0.078731
vt 0.727273 0.000000
vt 0.772727 0.078731
vt 0.681818 0.078731
vt 0.545455 0.000000
vt 0.590909 0.078731
vt 0.500000 0.078731
vt 0.318182 0.236191
vt 0.090910 0.157461
vt 0.181819 0.157461
vt 0.136365 0.236191
vt 0.818182 0.157461
vt 0.909091 0.157461
vt 0.863636 0.236191
vt 0.636364 0.157461
vt 0.727273 0.157461
vt 0.681818 0.236191
vt 0.454546 0.157461
vt 0.545455 0.157461
vt 0.500000 0.236191
vt 0.227273 0.236191
vt 0.045455 0.236191
vt 0.772727 0.236191
vt 0.590909 0.236191
vt 0.409092 0.236191
vt 0.181819 0.314921
vt 0.272728 0.314921
vt 0.227273 0.393651
vt 0.000000 0.314921
vt 0.090910 0.314921
vt 0.045455 0.393651
vt 0.727273 0.314921
vt 0.818182 0.314921
vt 0.772727 0.393651
vt 0.545455 0.314921
vt 0.636364 0.314921
vt 0.590909 0.393651
vt 0.363637 0.314921
vt 0.454546 0.314921
vt 0.409092 0.393651
vt 0.500000 0.393651
vt 0.454546 0.472382
vt 0.681818 0.393651
vt 0.636364 0.472382
vt 0.863636 0.393651
vt 0.818182 0.472382
vt 0.909091 0.314921
vt 0.136365 0.393651
vt 0.090910 0.472382
vt 0.318182 0.393651
vt 0.272728 0.472382
vt 0.954545 0.236191
vt 1.000000 0.157461
vt 0.409092 0.078731
vt 0.363637 0.000000
s 0
f 1/1/1 14/2/1 13/3/1
f 2/4/2 14/5/2 16/6/2
f 1/7/3 13/8/3 18/9/3
f 1/10/4 18/11/4 20/12/4
f 1/13/5 20/14/5 17/15/5
f 2/4/6 16/6/6 23/16/6
f 3/17/7 15/18/7 25/19/7
f 4/20/8 19/21/8 27/22/8
f 5/23/9 21/24/9 29/25/9
f 6/26/10 22/27/10 31/28/10
f 2/4/11 23/16/11 26/29/11
f 3/17/12 25/19/12 28/30/12
f 4/20/13 27/22/13 30/31/13
f 5/23/14 29/25/14 32/32/14
f 6/26/15 31/28/15 24/33/15
f 7/34/16 33/35/16 38/36/16
f 8/37/17 34/38/17 40/39/17
f 9/40/18 35/41/18 41/42/18
f 10/43/19 36/44/19 42/45/19
f 11/46/20 37/47/20 39/48/20
f 39/48/21 42/49/21 12/50/21
f 39/48/22 37/47/22 42/49/22
f 37/47/23 10/43/23 42/49/23
f 42/45/24 41/51/24 12/52/24
f 42/45/25 36/44/25 41/51/25
f 36/44/26 9/40/26 41/51/26
f 41/42/27 40/53/27 12/54/27
f 41/42/28 35/41/28 40/53/28
f 35/41/29 8/55/29 40/53/29
f 40/39/30 38/56/30 12/57/30
f 40/39/31 34/38/31 38/56/31
f 34/38/32 7/34/32 38/56/32
f 38/36/33 39/58/33 12/59/33
f 38/36/34 33/35/34 39/58/34
f 33/35/35 11/46/35 39/58/35
f 24/33/36 37/47/36 11/46/36
f 24/33/37 31/28/37 37/47/37
f 31/28/38 10/43/38 37/47/38
f 32/32/39 36/44/39 10/43/39
f 32/32/40 29/25/40 36/44/40
f 29/25/41 9/40/41 36/44/41
f 30/31/42 35/41/42 9/40/42
f 30/31/43 27/22/43 35/41/43
f 27/22/44 8/55/44 35/41/44
f 28/30/45 34/38/45 8/37/45
f 28/30/46 25/19/46 34/38/46
f 25/19/47 7/34/47 34/38/47
f 26/29/48 33/35/48 7/34/48
f 26/29/49 23/16/49 33/35/49
f 23/16/50 11/46/50 33/35/50
f 31/28/51 32/32/51 10/43/51
f 31/28/52 22/27/52 32/32/52
f 22/27/53 5/23/53 32/32/53
f 29/25/54 30/31/54 9/40/54
f 29/25/55 21/24/55 30/31/55
f 21/24/56 4/20/56 30/31/56
f 27/22/57 28/60/57 8/55/57
f 27/22/58 19/21/58 28/60/58
f 19/21/59 3/61/59 28/60/59
f 25/19/60 26/29/60 7/34/60
f 25/19/61 15/18/61 26/29/61
f 15/18/62 2/4/62 26/29/62
f 23/16/63 24/33/63 11/46/63
f 23/16/64 16/6/64 24/33/64
f 16/6/65 6/26/65 24/33/65
f 17/15/66 22/27/66 6/26/66
f 17/15/67 20/14/67 22/27/67
f 20/14/68 5/23/68 22/27/68
f 20/12/69 21/24/69 5/23/69
f 20/12/70 18/11/70 21/24/70
f 18/11/71 4/20/71 21/24/71
f 18/9/72 19/21/72 4/20/72
f 18/9/73 13/8/73 19/21/73
f 13/8/74 3/61/74 19/21/74
f 16/6/75 17/62/75 6/26/75
f 16/6/76 14/5/76 17/62/76
f 14/5/77 1/63/77 17/62/77
f 13/3/78 15/18/78 3/17/78
f 13/3/79 14/2/79 15/18/79
f 14/2/80 2/4/80 15/18/80
