# Blender 4.5.2 LTS
# www.blender.org
mtllib ovni_cima.mtl
o Cylinder
v 0.000000 1.090000 -0.030000
v 0.000000 1.790000 -0.030000
v 0.030000 1.090000 -0.000000
v 0.030000 1.790000 -0.000000
v 0.000000 1.090000 0.030000
v 0.000000 1.790000 0.030000
v -0.030000 1.090000 -0.000000
v -0.030000 1.790000 -0.000000
v 0.000000 1.770000 -0.000000
v 0.072360 1.825279 0.052572
v -0.027639 1.825279 0.085064
v -0.089442 1.825279 -0.000000
v -0.027639 1.825279 -0.085064
v 0.072360 1.825279 -0.052572
v 0.027639 1.914721 0.085064
v -0.072360 1.914721 0.052572
v -0.072360 1.914721 -0.052572
v 0.027639 1.914721 -0.085064
v 0.089442 1.914721 -0.000000
v 0.000000 1.970000 -0.000000
v 0.276388 0.547220 0.850649
v -0.723607 0.547220 0.525725
v -0.723607 0.547220 -0.525725
v 0.276388 0.547220 -0.850649
v 0.894426 0.547216 -0.000000
v 0.000000 1.100000 -0.000000
v 0.951058 0.100000 0.309013
v 0.951058 0.100000 -0.309013
v 0.000000 0.100000 1.000000
v 0.587786 0.100000 0.809017
v -0.951058 0.100000 0.309013
v -0.587786 0.100000 0.809017
v -0.587786 0.100000 -0.809017
v -0.951058 0.100000 -0.309013
v 0.587786 0.100000 -0.809017
v 0.000000 0.100000 -1.000000
v 0.688189 0.625736 0.499997
v -0.262869 0.625738 0.809012
v -0.850648 0.625736 -0.000000
v -0.262869 0.625738 -0.809012
v 0.688189 0.625736 -0.499997
v 0.162456 0.950654 0.499995
v 0.525730 0.950652 -0.000000
v -0.425323 0.950654 0.309011
v -0.425323 0.950654 -0.309011
v 0.162456 0.950654 -0.499995
vn 0.7071 -0.0000 -0.7071
vn 0.7071 -0.0000 0.7071
vn -0.0000 1.0000 -0.0000
vn -0.7071 -0.0000 0.7071
vn -0.7071 -0.0000 -0.7071
vn -0.0000 -1.0000 -0.0000
vn 0.1876 -0.7946 0.5774
vn 0.6071 -0.7946 -0.0000
vn -0.4911 -0.7946 0.3568
vn -0.4911 -0.7946 -0.3568
vn 0.1876 -0.7946 -0.5774
vn 0.9822 -0.1876 -0.0000
vn 0.3035 -0.1876 0.9342
vn -0.7947 -0.1876 0.5774
vn -0.7947 -0.1876 -0.5774
vn 0.3035 -0.1876 -0.9342
vn 0.7947 0.1876 0.5774
vn -0.3035 0.1876 0.9342
vn -0.9822 0.1876 -0.0000
vn -0.3035 0.1876 -0.9342
vn 0.7947 0.1876 -0.5774
vn 0.4911 0.7946 0.3568
vn -0.1876 0.7946 0.5774
vn -0.6071 0.7946 -0.0000
vn -0.1876 0.7946 -0.5774
vn 0.4911 0.7946 -0.3568
vn 0.4089 0.6617 0.6284
vn -0.4713 0.6617 0.5831
vn -0.7002 0.6617 -0.2680
vn 0.0385 0.6617 -0.7488
vn 0.7240 0.6617 -0.1947
vn 0.2680 0.9435 -0.1947
vn 0.4911 0.7947 -0.3568
vn 0.4089 0.6617 -0.6284
vn -0.1024 0.9435 -0.3151
vn -0.1876 0.7947 -0.5773
vn -0.4713 0.6617 -0.5831
vn -0.3313 0.9435 -0.0000
vn -0.6071 0.7947 -0.0000
vn -0.7002 0.6617 0.2680
vn -0.1024 0.9435 0.3151
vn -0.1876 0.7947 0.5773
vn 0.0385 0.6617 0.7488
vn 0.2680 0.9435 0.1947
vn 0.4911 0.7947 0.3568
vn 0.7240 0.6617 0.1947
vn 0.8897 0.3304 -0.3151
vn 0.7947 0.1876 -0.5773
vn 0.5746 0.3304 -0.7488
vn -0.0247 0.3304 -0.9435
vn -0.5346 0.3304 -0.7779
vn -0.9050 0.3304 -0.2680
vn -0.9050 0.3304 0.2680
vn -0.5346 0.3304 0.7779
vn -0.0247 0.3304 0.9435
vn 0.5746 0.3304 0.7488
vn 0.7947 0.1876 0.5773
vn 0.8897 0.3304 0.3151
vn 0.3066 0.1256 -0.9435
vn -0.8026 0.1256 -0.5831
vn -0.8026 0.1256 0.5831
vn 0.3066 0.1256 0.9435
vn 0.9921 0.1256 -0.0000
vt 1.000000 1.000000
vt 0.750000 0.500000
vt 1.000000 0.500000
vt 0.750000 1.000000
vt 0.500000 0.500000
vt 0.250000 0.490000
vt 0.250000 0.010000
vt 0.490000 0.250000
vt 0.500000 1.000000
vt 0.250000 0.500000
vt 0.250000 1.000000
vt 0.000000 0.500000
vt 0.990000 0.250000
vt 0.510000 0.250000
vt 0.750000 0.490000
vt 0.181819 0.000000
vt 0.272728 0.157461
vt 0.090910 0.157461
vt 0.363637 0.000000
vt 0.454546 0.157461
vt 0.909091 0.000000
vt 1.000000 0.157461
vt 0.818182 0.157461
vt 0.727273 0.000000
vt 0.636364 0.157461
vt 0.545455 0.000000
vt 0.363637 0.314921
vt 0.181819 0.314921
vt 0.909091 0.314921
vt 0.727273 0.314921
vt 0.545455 0.314921
vt 0.000000 0.314921
vt 0.272728 0.472382
vt 0.090910 0.472382
vt 0.818182 0.472382
vt 0.636364 0.472382
vt 0.454546 0.472382
vt 0.272728 0.314921
vt 0.227273 0.393651
vt 0.090910 0.314921
vt 0.045455 0.393651
vt 0.818182 0.314921
vt 0.772727 0.393651
vt 0.636364 0.314921
vt 0.590909 0.393651
vt 0.454546 0.314921
vt 0.409092 0.393651
vt 0.500000 0.393651
vt 0.681818 0.393651
vt 0.863636 0.393651
vt 0.136365 0.393651
vt 0.318182 0.393651
vt 0.409092 0.236191
vt 0.500000 0.236191
vt 0.590909 0.236191
vt 0.681818 0.236191
vt 0.772727 0.236191
vt 0.863636 0.236191
vt 0.045455 0.236191
vt 0.136365 0.236191
vt 0.227273 0.236191
vt 0.318182 0.236191
vt 0.954545 0.236191
vt 0.010000 0.250000
vt 0.000000 1.000000
vt 0.750000 0.010000
s 1
f 2/1/1 3/2/1 1/3/1
f 4/4/2 5/5/2 3/2/2
f 2/6/3 6/7/3 4/8/3
f 6/9/4 7/10/4 5/5/4
f 8/11/5 1/12/5 7/10/5
f 3/13/6 7/14/6 1/15/6
f 9/16/7 10/17/7 11/18/7
f 10/17/8 9/19/8 14/20/8
f 9/21/9 11/22/9 12/23/9
f 9/24/10 12/23/10 13/25/10
f 9/26/11 13/25/11 14/20/11
f 10/17/12 14/20/12 19/27/12
f 11/18/13 10/17/13 15/28/13
f 12/23/14 11/22/14 16/29/14
f 13/25/15 12/23/15 17/30/15
f 14/20/16 13/25/16 18/31/16
f 10/17/17 19/27/17 15/28/17
f 11/18/18 15/28/18 16/32/18
f 12/23/19 16/29/19 17/30/19
f 13/25/20 17/30/20 18/31/20
f 14/20/21 18/31/21 19/27/21
f 15/28/22 19/27/22 20/33/22
f 16/32/23 15/28/23 20/34/23
f 17/30/24 16/29/24 20/35/24
f 18/31/25 17/30/25 20/36/25
f 19/27/26 18/31/26 20/37/26
f 21/28/27 37/38/27 42/39/27
f 22/32/28 38/40/28 44/41/28
f 23/30/29 39/42/29 45/43/29
f 24/31/30 40/44/30 46/45/30
f 25/27/31 41/46/31 43/47/31
f 43/47/32 46/48/32 26/37/32
f 43/47/33 41/46/33 46/48/33
f 41/46/34 24/31/34 46/48/34
f 46/45/35 45/49/35 26/36/35
f 46/45/36 40/44/36 45/49/36
f 40/44/37 23/30/37 45/49/37
f 45/43/38 44/50/38 26/35/38
f 45/43/39 39/42/39 44/50/39
f 39/42/40 22/29/40 44/50/40
f 44/41/41 42/51/41 26/34/41
f 44/41/42 38/40/42 42/51/42
f 38/40/43 21/28/43 42/51/43
f 42/39/44 43/52/44 26/33/44
f 42/39/45 37/38/45 43/52/45
f 37/38/46 25/27/46 43/52/46
f 28/53/47 41/46/47 25/27/47
f 28/53/48 35/54/48 41/46/48
f 35/54/49 24/31/49 41/46/49
f 36/55/50 40/44/50 24/31/50
f 36/55/20 33/56/20 40/44/20
f 33/56/51 23/30/51 40/44/51
f 34/57/52 39/42/52 23/30/52
f 34/57/19 31/58/19 39/42/19
f 31/58/53 22/29/53 39/42/53
f 32/59/54 38/40/54 22/32/54
f 32/59/18 29/60/18 38/40/18
f 29/60/55 21/28/55 38/40/55
f 30/61/56 37/38/56 21/28/56
f 30/61/57 27/62/57 37/38/57
f 27/62/58 25/27/58 37/38/58
f 35/54/59 36/55/59 24/31/59
f 33/56/60 34/57/60 23/30/60
f 31/58/61 32/63/61 22/29/61
f 29/60/62 30/61/62 21/28/62
f 27/62/63 28/53/63 25/27/63
f 2/1/1 4/4/1 3/2/1
f 4/4/2 6/9/2 5/5/2
f 2/6/3 8/64/3 6/7/3
f 6/9/4 8/11/4 7/10/4
f 8/11/5 2/65/5 1/12/5
f 3/13/6 5/66/6 7/14/6
