# Blender 5.0.1
# www.blender.org
mtllib Triangle.mtl
o Cone
v -0.049128 -0.024148 -2.967675
v 0.935189 0.064058 0.045717
v -0.925646 0.077442 0.050987
v 0.207440 2.695458 -0.118801
vn 0.9217 0.2357 -0.3080
vn -0.0071 -0.9995 0.0316
vn 0.0033 0.0633 0.9980
vn -0.8897 0.3675 -0.2707
vt 0.250000 0.490000
vt 0.250000 0.250000
vt 0.457846 0.130000
vt 0.750000 0.490000
vt 0.957846 0.130000
vt 0.542154 0.130000
vt 0.042154 0.130000
s 0
f 1/1/1 4/2/1 2/3/1
f 1/4/2 2/5/2 3/6/2
f 2/3/3 4/2/3 3/7/3
f 3/7/4 4/2/4 1/1/4
